<svg xmlns="http://www.w3.org/2000/svg" viewBox="0 0 71 62" width="71" height="62">
	<style>
		tspan { white-space:pre }
		.shp0 { fill: #ffffff } 
	</style>
	<g id="icon">
		<path id="speech bubble 3" class="shp0" d="M35.97,0.98c19.33,0 35.01,11.72 35.01,26.17c0,14.45 -15.67,26.17 -35.01,26.17c-2.18,0 -4.32,-0.15 -6.39,-0.44c-0.06,0.04 -21.18,8.13 -21.18,8.13c0,0 6.92,-12.64 6.94,-12.72c-8.71,-4.76 -14.37,-12.46 -14.37,-21.14c0,-14.45 15.67,-26.17 35.01,-26.17zM16.38,27.15c0,1.55 1.25,2.8 2.79,2.8c1.54,0 2.79,-1.25 2.79,-2.8c0,-1.55 -1.25,-2.8 -2.79,-2.8c-1.54,0 -2.79,1.25 -2.79,2.8zM27.47,27.27c0,1.55 1.25,2.8 2.79,2.8c1.54,0 2.79,-1.25 2.79,-2.8c0,-1.55 -1.25,-2.8 -2.79,-2.8c-1.54,0 -2.79,1.25 -2.79,2.8zM38.73,27.27c0,1.55 1.25,2.8 2.79,2.8c1.54,0 2.79,-1.25 2.79,-2.8c0,-1.55 -1.25,-2.8 -2.79,-2.8c-1.54,0 -2.79,1.25 -2.79,2.8zM49.87,27.27c0,1.55 1.25,2.8 2.79,2.8c1.54,0 2.79,-1.25 2.79,-2.8c0,-1.55 -1.25,-2.8 -2.79,-2.8c-1.54,0 -2.79,1.25 -2.79,2.8z" />
	</g>
</svg>