<svg xmlns="http://www.w3.org/2000/svg" viewBox="0 0 23 25" width="23" height="25">
	<style>
		tspan { white-space:pre }
		.shp0 { fill: #ffffff } 
	</style>
	<path id="icon" class="shp0" d="M20.63 7.96C19.79 7.96 19.09 8.65 19.09 9.5L19.09 15.66C19.09 16.51 19.79 17.21 20.63 17.21C21.48 17.21 22.17 16.51 22.17 15.66L22.17 9.5C22.17 8.65 21.48 7.96 20.63 7.96ZM2.14 7.96C1.29 7.96 0.6 8.65 0.6 9.5L0.6 15.66C0.6 16.51 1.29 17.21 2.14 17.21C2.99 17.21 3.68 16.51 3.68 15.66L3.68 9.5C3.68 8.65 2.99 7.96 2.14 7.96ZM4.45 17.98C4.45 19.25 5.49 20.29 6.76 20.29L7.54 20.29L7.54 23.37C7.54 24.22 8.23 24.91 9.08 24.91C9.92 24.91 10.62 24.22 10.62 23.37L10.62 20.29L12.16 20.29L12.16 23.37C12.16 24.22 12.85 24.91 13.7 24.91C14.55 24.91 15.24 24.22 15.24 23.37L15.24 20.29L16.01 20.29C17.29 20.29 18.32 19.25 18.32 17.98L18.32 9.5L4.45 9.5L4.45 17.98ZM14.24 2.41L15.22 0.54C15.27 0.44 15.23 0.32 15.14 0.28C15.04 0.23 14.93 0.26 14.88 0.36L13.89 2.26C13.11 1.96 12.27 1.8 11.39 1.8C10.51 1.8 9.66 1.96 8.89 2.26L7.9 0.36C7.85 0.26 7.73 0.23 7.64 0.28C7.54 0.32 7.51 0.44 7.56 0.54L8.53 2.41C6.35 3.4 4.77 5.48 4.5 7.96L18.28 7.96C18.01 5.48 16.43 3.4 14.24 2.41ZM8.31 6.77C7.69 6.77 7.19 6.26 7.19 5.65C7.19 5.03 7.69 4.53 8.31 4.53C8.92 4.53 9.42 5.03 9.42 5.65C9.42 6.26 8.92 6.77 8.31 6.77ZM14.47 6.77C13.85 6.77 13.35 6.26 13.35 5.65C13.35 5.03 13.85 4.53 14.47 4.53C15.09 4.53 15.59 5.03 15.59 5.65C15.59 6.26 15.09 6.77 14.47 6.77Z" />
</svg>