<svg xmlns="http://www.w3.org/2000/svg" viewBox="0 0 21 26" width="21" height="26">
	<style>
		tspan { white-space:pre }
		.shp0 { fill: #4bc9ff } 
	</style>
	<path id="icon" class="shp0" d="M16.77 13.81C16.74 10.69 19.32 9.19 19.43 9.12C17.98 7 15.73 6.71 14.92 6.68C13 6.48 11.18 7.81 10.2 7.81C9.23 7.81 7.73 6.7 6.14 6.73C4.04 6.76 2.11 7.95 1.03 9.83C-1.14 13.6 0.48 19.19 2.6 22.25C3.63 23.75 4.87 25.43 6.49 25.37C8.05 25.31 8.64 24.36 10.53 24.36C12.42 24.36 12.95 25.37 14.6 25.34C16.28 25.31 17.34 23.81 18.37 22.31C19.56 20.57 20.05 18.89 20.08 18.8C20.04 18.78 16.8 17.54 16.77 13.81ZM13.67 4.65C14.53 3.61 15.11 2.16 14.95 0.71C13.71 0.76 12.21 1.54 11.32 2.58C10.52 3.5 9.82 4.98 10.01 6.4C11.39 6.5 12.8 5.69 13.67 4.65Z" />
</svg>