<svg xmlns="http://www.w3.org/2000/svg" viewBox="0 0 78 55" width="78" height="55">
	<style>
		tspan { white-space:pre }
		.shp0 { fill: #ffffff } 
	</style>
	<g id="icon">
		<path id="speech bubble 2" class="shp0" d="M0.97,21.7c0,6.88 4.55,12.97 11.56,16.74c-0.02,0.06 -5.58,10.07 -5.58,10.07c0,0 16.98,-6.41 17.03,-6.43c1.67,0.23 3.38,0.34 5.14,0.34c15.54,0 28.15,-9.27 28.15,-20.72c0,-11.44 -12.6,-20.72 -28.15,-20.72c-15.55,0 -28.15,9.28 -28.15,20.72zM53.28,7.46c18.41,18.14 -3.27,37.47 -20.95,37.47c0,0 1.96,3.97 17.51,3.97c1.76,0 3.47,-0.12 5.14,-0.34c0.05,0.03 17.03,6.43 17.03,6.43c0,0 -5.56,-10.01 -5.58,-10.07c7.01,-3.77 11.56,-9.86 11.56,-16.74c0,-11.44 -11.87,-20.64 -24.71,-20.72z" />
	</g>
</svg>