<svg xmlns="http://www.w3.org/2000/svg" width="23" height="25"><style/><path id="icon" d="M20.63 7.96c-.84 0-1.54.69-1.54 1.54v6.16c0 .85.7 1.55 1.54 1.55.85 0 1.54-.7 1.54-1.55V9.5c0-.85-.69-1.54-1.54-1.54zm-18.49 0C1.29 7.96.6 8.65.6 9.5v6.16c0 .85.69 1.55 1.54 1.55.85 0 1.54-.7 1.54-1.55V9.5c0-.85-.69-1.54-1.54-1.54zm2.31 10.02c0 1.27 1.04 2.31 2.31 2.31h.78v3.08c0 .85.69 1.54 1.54 1.54.84 0 1.54-.69 1.54-1.54v-3.08h1.54v3.08a1.54 1.54 0 0 0 3.08 0v-3.08h.77c1.28 0 2.31-1.04 2.31-2.31V9.5H4.45v8.48zm9.79-15.57l.98-1.87c.05-.1.01-.22-.08-.26-.1-.05-.21-.02-.26.08l-.99 1.9c-.78-.3-1.62-.46-2.5-.46-.88 0-1.73.16-2.5.46L7.9.36a.188.188 0 0 0-.26-.08c-.1.04-.13.16-.08.26l.97 1.87A6.93 6.93 0 0 0 4.5 7.96h13.78a6.921 6.921 0 0 0-4.04-5.55zM8.31 6.77c-.62 0-1.12-.51-1.12-1.12a1.116 1.116 0 0 1 2.23 0c0 .61-.5 1.12-1.11 1.12zm6.16 0c-.62 0-1.12-.51-1.12-1.12 0-.62.5-1.12 1.12-1.12.62 0 1.12.5 1.12 1.12 0 .61-.5 1.12-1.12 1.12z" fill="#fff"/></svg>