<svg xmlns="http://www.w3.org/2000/svg" width="78" height="55"><style/><g id="icon"><path id="speech bubble 2" d="M.97 21.7c0 6.88 4.55 12.97 11.56 16.74-.02.06-5.58 10.07-5.58 10.07s16.98-6.41 17.03-6.43c1.67.23 3.38.34 5.14.34 15.54 0 28.15-9.27 28.15-20.72C57.27 10.26 44.67.98 29.12.98 13.57.98.97 10.26.97 21.7zM53.28 7.46c18.41 18.14-3.27 37.47-20.95 37.47 0 0 1.96 3.97 17.51 3.97 1.76 0 3.47-.12 5.14-.34.05.03 17.03 6.43 17.03 6.43s-5.56-10.01-5.58-10.07c7.01-3.77 11.56-9.86 11.56-16.74 0-11.44-11.87-20.64-24.71-20.72z" fill="#fff"/></g></svg>