<svg xmlns="http://www.w3.org/2000/svg" width="71" height="62"><style/><g id="icon"><path id="speech bubble 3" d="M35.97.98C55.3.98 70.98 12.7 70.98 27.15c0 14.45-15.67 26.17-35.01 26.17-2.18 0-4.32-.15-6.39-.44-.06.04-21.18 8.13-21.18 8.13s6.92-12.64 6.94-12.72C6.63 43.53.97 35.83.97 27.15.97 12.7 16.64.98 35.98.98zM16.38 27.15c0 1.55 1.25 2.8 2.79 2.8s2.79-1.25 2.79-2.8c0-1.55-1.25-2.8-2.79-2.8s-2.79 1.25-2.79 2.8zm11.09.12c0 1.55 1.25 2.8 2.79 2.8s2.79-1.25 2.79-2.8c0-1.55-1.25-2.8-2.79-2.8s-2.79 1.25-2.79 2.8zm11.26 0c0 1.55 1.25 2.8 2.79 2.8s2.79-1.25 2.79-2.8c0-1.55-1.25-2.8-2.79-2.8s-2.79 1.25-2.79 2.8zm11.14 0c0 1.55 1.25 2.8 2.79 2.8s2.79-1.25 2.79-2.8c0-1.55-1.25-2.8-2.79-2.8s-2.79 1.25-2.79 2.8z" fill="#fff"/></g></svg>