<svg xmlns="http://www.w3.org/2000/svg" width="21" height="26"><style/><path id="icon" d="M16.77 13.81c-.03-3.12 2.55-4.62 2.66-4.69-1.45-2.12-3.7-2.41-4.51-2.44-1.92-.2-3.74 1.13-4.72 1.13-.97 0-2.47-1.11-4.06-1.08-2.1.03-4.03 1.22-5.11 3.1-2.17 3.77-.55 9.36 1.57 12.42 1.03 1.5 2.27 3.18 3.89 3.12 1.56-.06 2.15-1.01 4.04-1.01 1.89 0 2.42 1.01 4.07.98 1.68-.03 2.74-1.53 3.77-3.03 1.19-1.74 1.68-3.42 1.71-3.51-.04-.02-3.28-1.26-3.31-4.99zm-3.1-9.16c.86-1.04 1.44-2.49 1.28-3.94-1.24.05-2.74.83-3.63 1.87-.8.92-1.5 2.4-1.31 3.82 1.38.1 2.79-.71 3.66-1.75z" fill="#4bc9ff"/></svg>